<?xml version="1.0" encoding="UTF-8" standalone="no" ?>
<!DOCTYPE svg PUBLIC "-//W3C//DTD SVG 1.1//EN" "http://www.w3.org/Graphics/SVG/1.1/DTD/svg11.dtd">
<svg xmlns="http://www.w3.org/2000/svg" xmlns:xlink="http://www.w3.org/1999/xlink" version="1.1" width="1080" height="1080" viewBox="0 0 1080 1080" xml:space="preserve">
<desc>Created with Fabric.js 5.2.4</desc>
<defs>
</defs>
<g transform="matrix(1 0 0 1 540 540)" id="3dc5faf5-e900-4a87-bb3a-6e261de38a8e"  >
<rect style="stroke: none; stroke-width: 1; stroke-dasharray: none; stroke-linecap: butt; stroke-dashoffset: 0; stroke-linejoin: miter; stroke-miterlimit: 4; fill: rgb(255,255,255); fill-rule: nonzero; opacity: 1; visibility: hidden;" vector-effect="non-scaling-stroke"  x="-540" y="-540" rx="0" ry="0" width="1080" height="1080" />
</g>
<g transform="matrix(1 0 0 1 540 540)" id="3537b597-807e-4f77-aa67-35e550548ff7"  >
</g>
<g transform="matrix(1 0 0 1 540 540)" id="a9f22ef1-7683-4f93-be84-7d1414c60a46"  >
<path style="stroke: rgb(0,0,0); stroke-width: 0; stroke-dasharray: none; stroke-linecap: butt; stroke-dashoffset: 0; stroke-linejoin: miter; stroke-miterlimit: 4; fill: rgb(255,87,51); fill-rule: nonzero; opacity: 1;" vector-effect="non-scaling-stroke"  transform=" translate(-116, -52)" d="M 4 96 C 6.209138999323174 96 8 97.79086100067683 8 100 C 8 102.20913899932317 6.209138999323175 104 4.000000000000001 104 C 1.7908610006768262 104 0 102.20913899932317 0 100 C 0 97.79086100067683 1.7908610006768262 96 4 96 z M 228 96 C 230.2091389993232 96 232 97.79086100067683 232 100 C 232 102.20913899932317 230.2091389993232 104 228 104 C 225.7908610006768 104 224 102.20913899932317 224 100 C 224 97.79086100067683 225.7908610006768 96 228 96 z M 196 96 C 198.2091389993232 96 200 97.79086100067683 200 100 C 200 102.20913899932317 198.2091389993232 104 196 104 C 193.7908610006768 104 192 102.20913899932317 192 100 C 192 97.79086100067683 193.7908610006768 96 196 96 z M 164 96 C 166.2091389993232 96 168 97.79086100067683 168 100 C 168 102.20913899932317 166.2091389993232 104 164 104 C 161.7908610006768 104 160 102.20913899932317 160 100 C 160 97.79086100067683 161.7908610006768 96 164 96 z M 132 96 C 134.2091389993232 96 136 97.79086100067683 136 100 C 136 102.20913899932317 134.2091389993232 104 132 104 C 129.7908610006768 104 128 102.20913899932317 128 100 C 128 97.79086100067683 129.7908610006768 96 132 96 z M 100 96 C 102.20913899932317 96 104 97.79086100067683 104 100 C 104 102.20913899932317 102.20913899932317 104 100 104 C 97.79086100067683 104 96 102.20913899932317 96 100 C 96 97.79086100067683 97.79086100067683 96 100 96 z M 68 96 C 70.20913899932317 96 72 97.79086100067683 72 100 C 72 102.20913899932317 70.20913899932317 104 68 104 C 65.79086100067683 104 64 102.20913899932317 64 100 C 64 97.79086100067683 65.79086100067683 96 68 96 z M 36 96 C 38.20913899932317 96 40 97.79086100067683 40 100 C 40 102.20913899932317 38.20913899932317 104 36 104 C 33.79086100067683 104 32 102.20913899932317 32 100 C 32 97.79086100067683 33.79086100067683 96 36 96 z M 228 64 C 230.2091389993232 64 232 65.79086100067683 232 68 C 232 70.20913899932317 230.2091389993232 72 228 72 C 225.7908610006768 72 224 70.20913899932317 224 68 C 224 65.79086100067683 225.7908610006768 64 228 64 z M 4 64 C 6.209138999323174 64 8 65.79086100067683 8 68 C 8 70.20913899932317 6.209138999323175 72 4.000000000000001 72 C 1.7908610006768262 72 0 70.20913899932317 0 68 C 0 65.79086100067683 1.7908610006768262 64 4 64 z M 36 64 C 38.20913899932317 64 40 65.79086100067683 40 68 C 40 70.20913899932317 38.20913899932317 72 36 72 C 33.79086100067683 72 32 70.20913899932317 32 68 C 32 65.79086100067683 33.79086100067683 64 36 64 z M 68 64 C 70.20913899932317 64 72 65.79086100067683 72 68 C 72 70.20913899932317 70.20913899932317 72 68 72 C 65.79086100067683 72 64 70.20913899932317 64 68 C 64 65.79086100067683 65.79086100067683 64 68 64 z M 100 64 C 102.20913899932317 64 104 65.79086100067683 104 68 C 104 70.20913899932317 102.20913899932317 72 100 72 C 97.79086100067683 72 96 70.20913899932317 96 68 C 96 65.79086100067683 97.79086100067683 64 100 64 z M 132 64 C 134.2091389993232 64 136 65.79086100067683 136 68 C 136 70.20913899932317 134.2091389993232 72 132 72 C 129.7908610006768 72 128 70.20913899932317 128 68 C 128 65.79086100067683 129.7908610006768 64 132 64 z M 164 64 C 166.2091389993232 64 168 65.79086100067683 168 68 C 168 70.20913899932317 166.2091389993232 72 164 72 C 161.7908610006768 72 160 70.20913899932317 160 68 C 160 65.79086100067683 161.7908610006768 64 164 64 z M 196 64 C 198.2091389993232 64 200 65.79086100067683 200 68 C 200 70.20913899932317 198.2091389993232 72 196 72 C 193.7908610006768 72 192 70.20913899932317 192 68 C 192 65.79086100067683 193.7908610006768 64 196 64 z M 228 32 C 230.2091389993232 32 232 33.79086100067683 232 36 C 232 38.20913899932317 230.2091389993232 40 228 40 C 225.7908610006768 40 224 38.20913899932317 224 36 C 224 33.79086100067683 225.7908610006768 32 228 32 z M 196 32 C 198.2091389993232 32 200 33.79086100067683 200 36 C 200 38.20913899932317 198.2091389993232 40 196 40 C 193.7908610006768 40 192 38.20913899932317 192 36 C 192 33.79086100067683 193.7908610006768 32 196 32 z M 164 32 C 166.2091389993232 32 168 33.79086100067683 168 36 C 168 38.20913899932317 166.2091389993232 40 164 40 C 161.7908610006768 40 160 38.20913899932317 160 36 C 160 33.79086100067683 161.7908610006768 32 164 32 z M 132 32 C 134.2091389993232 32 136 33.79086100067683 136 36 C 136 38.20913899932317 134.2091389993232 40 132 40 C 129.7908610006768 40 128 38.20913899932317 128 36 C 128 33.79086100067683 129.7908610006768 32 132 32 z M 100 32 C 102.20913899932317 32 104 33.79086100067683 104 36 C 104 38.20913899932317 102.20913899932317 40 100 40 C 97.79086100067683 40 96 38.20913899932317 96 36 C 96 33.79086100067683 97.79086100067683 32 100 32 z M 68 32 C 70.20913899932317 32 72 33.79086100067683 72 36 C 72 38.20913899932317 70.20913899932317 40 68 40 C 65.79086100067683 40 64 38.20913899932317 64 36 C 64 33.79086100067683 65.79086100067683 32 68 32 z M 36 32 C 38.20913899932317 32 40 33.79086100067683 40 36 C 40 38.20913899932317 38.20913899932317 40 36 40 C 33.79086100067683 40 32 38.20913899932317 32 36 C 32 33.79086100067683 33.79086100067683 32 36 32 z M 4 32 C 6.209138999323174 32 8 33.79086100067683 8 36 C 8 38.20913899932317 6.209138999323175 40 4.000000000000001 40 C 1.7908610006768262 40 0 38.20913899932317 0 36 C 0 33.79086100067683 1.7908610006768262 32 4 32 z M 36 0 C 38.20913899932317 0 40 1.7908610006768253 40 3.999999999999999 C 40 6.209138999323173 38.20913899932317 7.999999999999999 36 8 C 33.79086100067683 8 32 6.209138999323174 32 4 C 32 1.7908610006768262 33.79086100067683 0 36 0 z M 68 0 C 70.20913899932317 0 72 1.7908610006768253 72 3.999999999999999 C 72 6.209138999323173 70.20913899932317 7.999999999999999 68 8 C 65.79086100067683 8 64 6.209138999323174 64 4 C 64 1.7908610006768262 65.79086100067683 0 68 0 z M 100 0 C 102.20913899932317 0 104 1.7908610006768253 104 3.999999999999999 C 104 6.209138999323173 102.20913899932317 7.999999999999999 100 8 C 97.79086100067683 8 96 6.209138999323174 96 4 C 96 1.7908610006768262 97.79086100067683 0 100 0 z M 132 0 C 134.2091389993232 0 136 1.7908610006768253 136 3.999999999999999 C 136 6.209138999323173 134.2091389993232 7.999999999999999 132 8 C 129.7908610006768 8 128 6.209138999323174 128 4 C 128 1.7908610006768262 129.7908610006768 0 132 0 z M 164 0 C 166.2091389993232 0 168 1.7908610006768253 168 3.999999999999999 C 168 6.209138999323173 166.2091389993232 7.999999999999999 164 8 C 161.7908610006768 8 160 6.209138999323174 160 4 C 160 1.7908610006768262 161.7908610006768 0 164 0 z M 196 0 C 198.2091389993232 0 200 1.7908610006768253 200 3.999999999999999 C 200 6.209138999323173 198.2091389993232 7.999999999999999 196 8 C 193.7908610006768 8 192 6.209138999323174 192 4 C 192 1.7908610006768262 193.7908610006768 0 196 0 z M 228 0 C 230.2091389993232 0 232 1.7908610006768253 232 3.999999999999999 C 232 6.209138999323173 230.2091389993232 7.999999999999999 228 8 C 225.7908610006768 8 224 6.209138999323174 224 4 C 224 1.7908610006768262 225.7908610006768 0 228 0 z M 4 0 C 6.209138999323174 0 8 1.7908610006768253 8 3.999999999999999 C 8 6.209138999323173 6.209138999323175 7.999999999999999 4.000000000000001 8 C 1.7908610006768262 8 0 6.209138999323174 0 4 C 0 1.7908610006768262 1.7908610006768262 0 4 0 z" stroke-linecap="round" />
</g>
<g transform="matrix(NaN NaN NaN NaN 0 0)"  >
<g style=""   >
</g>
</g>
<g transform="matrix(NaN NaN NaN NaN 0 0)"  >
<g style=""   >
</g>
</g>
</svg>