<?xml version="1.0" encoding="UTF-8" standalone="no" ?>
<!DOCTYPE svg PUBLIC "-//W3C//DTD SVG 1.1//EN" "http://www.w3.org/Graphics/SVG/1.1/DTD/svg11.dtd">
<svg xmlns="http://www.w3.org/2000/svg" xmlns:xlink="http://www.w3.org/1999/xlink" version="1.1" width="1080" height="1080" viewBox="0 0 1080 1080" xml:space="preserve">
<desc>Created with Fabric.js 5.2.4</desc>
<defs>
</defs>
<rect x="0" y="0" width="100%" height="100%" fill="transparent"></rect>
<g transform="matrix(1 0 0 1 540 540)" id="3537b597-807e-4f77-aa67-35e550548ff7"  >
</g>
<g transform="matrix(1 0 0 1 540 540)" id="3dc5faf5-e900-4a87-bb3a-6e261de38a8e"  >
<rect style="stroke: none; stroke-width: 1; stroke-dasharray: none; stroke-linecap: butt; stroke-dashoffset: 0; stroke-linejoin: miter; stroke-miterlimit: 4; fill: rgb(255,255,255); fill-rule: nonzero; opacity: 1; visibility: hidden;" vector-effect="non-scaling-stroke"  x="-540" y="-540" rx="0" ry="0" width="1080" height="1080" />
</g>
<g transform="matrix(0 0 0 0 0 0)"  >
<g style=""   >
</g>
</g>
<g transform="matrix(0 0 0 0 0 0)"  >
<g style=""   >
</g>
</g>
<g transform="matrix(1 0 0 1 540 540)"  >
<g style="" vector-effect="non-scaling-stroke"   >
		<g transform="matrix(1 0 0 1 -39.43 0)"  >
<path style="stroke: none; stroke-width: 1; stroke-dasharray: none; stroke-linecap: butt; stroke-dashoffset: 0; stroke-linejoin: miter; stroke-miterlimit: 4; fill: rgb(255,87,51); fill-rule: evenodd; opacity: 1;" vector-effect="non-scaling-stroke"  transform=" translate(-28, -28)" d="M 28 0 C 43.464 0 56 12.536 56 28 C 56 43.464 43.464 56 28 56 C 12.536000000000001 56 0 43.464 0 28 C 0 12.536000000000001 12.536 0 28 0 z M 23.2 13.827 C 21.665 13.827 20.442 14.875 20.221 16.38 L 17.876 32.66 C 17.865000000000002 32.736 17.836000000000002 32.934 17.556 32.946999999999996 C 17.287000000000003 32.958 17.234 32.775 17.216 32.696999999999996 L 16.458000000000002 29.356999999999996 C 16.456728225676578 29.35198378688095 16.455394791455145 29.34698340855058 16.454 29.341999999999995 C 15.962 27.285999999999994 14.117 25.793999999999997 12.066 25.793999999999997 C 11.321000000000002 25.793999999999997 10.716000000000001 26.391999999999996 10.716000000000001 27.130999999999997 C 10.716000000000001 27.868999999999996 11.321000000000002 28.467999999999996 12.066 28.467999999999996 C 12.864 28.467999999999996 13.619 29.104999999999997 13.825000000000001 29.951999999999998 L 14.582 33.291 L 14.586 33.306 C 14.926 34.732 16.198 35.683 17.676000000000002 35.617999999999995 C 19.155 35.553 20.336000000000002 34.495 20.549000000000003 33.041999999999994 L 22.894000000000002 16.760999999999996 C 22.907000000000004 16.676999999999996 22.932000000000002 16.500999999999994 23.197000000000003 16.500999999999994 L 23.287000000000003 16.508999999999993 C 23.469 16.543999999999993 23.490000000000002 16.686999999999994 23.500000000000004 16.759999999999994 L 26.793000000000003 39.571999999999996 C 27.016000000000002 41.10999999999999 28.257 42.172 29.818 42.172 L 29.87 42.172 C 31.455000000000002 42.148999999999994 32.687 41.041999999999994 32.866 39.482 L 33.326 35.436 C 33.364646688836075 35.08179726056993 33.26063547794439 34.72678714161717 33.03695689852745 34.449440715125355 C 32.81327831911051 34.172094288633545 32.488352244347375 33.99525096111162 32.134 33.958 C 31.396460935950543 33.8729465391064 30.729157513262553 34.400706618712185 30.642 35.138 L 30.182 39.181999999999995 C 30.171999999999997 39.266999999999996 30.147 39.49399999999999 29.828999999999997 39.498999999999995 C 29.513999999999996 39.504999999999995 29.478999999999996 39.276999999999994 29.467 39.193 L 26.174 16.380999999999997 C 25.956 14.878999999999996 24.733 13.827999999999996 23.2 13.826999999999996 z M 34.402 22.986 C 33.002 23.022000000000002 31.916 24.009 31.759 25.386 L 31.187 30.39 C 31.148047601154914 30.744051701291266 31.25165847273326 31.099043543242324 31.474944486468228 31.376556160312923 C 31.69823050020319 31.654068777383525 32.022816531057416 31.831264514170083 32.377 31.869 C 33.114212052513 31.954697497447444 33.781847851165345 31.42792256723146 33.870000000000005 30.691 L 34.44200000000001 25.686 C 34.44298619605149 25.677946000217574 34.44432078011928 25.669938495810886 34.446000000000005 25.662 C 34.46341293477064 25.65823243053195 34.48135264601534 25.6575554602963 34.499 25.66 C 34.500997297602794 25.666917129489693 34.50266583392688 25.673924982050863 34.504000000000005 25.681 L 35.56400000000001 32.082 C 35.79200000000001 33.442 36.92400000000001 34.428 38.31400000000001 34.482 L 38.43300000000001 34.485 C 39.77300000000001 34.485 40.919000000000004 33.602 41.245000000000005 32.303 L 41.249 32.287 L 41.726 30.284 C 41.99 29.247999999999998 42.937 28.468 43.934 28.468 C 44.678999999999995 28.468 45.284 27.869 45.284 27.131 C 45.284 26.392 44.679 25.794 43.934 25.794 C 41.695 25.794 39.664 27.414 39.104 29.646 L 39.1 29.662 L 38.623000000000005 31.665 C 38.607000000000006 31.727999999999998 38.578 31.816 38.42 31.81 C 38.255 31.804 38.238 31.706999999999997 38.228 31.645999999999997 L 37.168 25.245999999999995 C 36.938 23.877999999999997 35.801 22.947999999999993 34.402 22.985999999999997 z" stroke-linecap="round" />
</g>
		<g transform="matrix(1 0 0 1 34.6 -0.02)"  >
<path style="stroke: none; stroke-width: 1; stroke-dasharray: none; stroke-linecap: butt; stroke-dashoffset: 0; stroke-linejoin: miter; stroke-miterlimit: 4; fill: rgb(255,87,51); fill-rule: nonzero; opacity: 1;" vector-effect="non-scaling-stroke"  transform=" translate(-102.02, -27.98)" d="M 74.97 45.806 L 74.97 36.31 C 75.55 37.075 76.322 37.721000000000004 77.28399999999999 38.249 C 78.24699999999999 38.777 79.36099999999999 39.04 80.62599999999999 39.04 C 82.103 39.04 83.428 38.658 84.60099999999998 37.893 C 85.77499999999999 37.128 86.70399999999998 35.980000000000004 87.38999999999999 34.45 C 88.07499999999999 32.92 88.41799999999999 31.060000000000002 88.41799999999999 28.870000000000005 L 88.41799999999999 28.435000000000006 C 88.41799999999999 26.140000000000008 88.04799999999999 24.215000000000007 87.31099999999999 22.658000000000005 C 86.57199999999999 21.101000000000006 85.571 19.941000000000006 84.30499999999999 19.176000000000005 C 83.03899999999999 18.411000000000005 81.615 18.028000000000006 80.03299999999999 18.028000000000006 C 77.713 18.028000000000006 75.814 19.004000000000005 74.338 20.956000000000007 L 73.74499999999999 18.424000000000007 L 69.19599999999998 18.424000000000007 L 69.19599999999998 45.807 L 74.97099999999999 45.807 z M 78.768 34.845 C 77.66 34.845 76.75 34.429 76.038 33.598 C 75.327 32.768 74.971 31.587 74.971 30.057 L 74.971 26.772 C 74.971 25.215999999999998 75.327 24.029 76.039 23.211 C 76.75 22.392999999999997 77.66 21.983999999999998 78.768 21.983999999999998 C 79.875 21.983999999999998 80.785 22.394 81.497 23.211 C 82.209 24.029 82.564 25.215999999999998 82.564 26.772 L 82.564 30.057 C 82.564 31.587 82.20899999999999 32.766999999999996 81.497 33.598 C 80.78500000000001 34.429 79.875 34.845 78.767 34.845 z M 102.34 39.039 C 104.212 39.039 105.9 38.644 107.402 37.852000000000004 C 108.905 37.06100000000001 110.08500000000001 35.913000000000004 110.94200000000001 34.410000000000004 C 111.799 32.906000000000006 112.22800000000001 31.138000000000005 112.22800000000001 29.107000000000003 L 112.22800000000001 27.959000000000003 C 112.22800000000001 25.929000000000002 111.799 24.161 110.94200000000001 22.657000000000004 C 110.08500000000001 21.153000000000002 108.905 20.006000000000004 107.402 19.214000000000002 C 105.899 18.423000000000002 104.212 18.027 102.34 18.027 L 101.70700000000001 18.027 C 99.83500000000001 18.027 98.147 18.423000000000002 96.64500000000001 19.214000000000002 C 95.14200000000001 20.006000000000004 93.96200000000002 21.154000000000003 93.105 22.657000000000004 C 92.248 24.161000000000005 91.819 25.928000000000004 91.819 27.959000000000003 L 91.819 29.107000000000003 C 91.819 31.138 92.248 32.906000000000006 93.105 34.410000000000004 C 93.962 35.913000000000004 95.14200000000001 37.06 96.64500000000001 37.852000000000004 C 98.14800000000001 38.644000000000005 99.83500000000001 39.039 101.70700000000001 39.039 L 102.34 39.039 z M 102.02300000000001 35.082 C 100.73200000000001 35.082 99.683 34.660000000000004 98.879 33.816 C 98.075 32.972 97.673 31.746000000000002 97.673 30.136000000000003 L 97.673 26.93 C 97.673 25.32 98.075 24.094 98.879 23.25 C 99.683 22.405 100.732 21.983 102.02300000000001 21.983 C 103.31500000000001 21.983 104.36300000000001 22.405 105.168 23.249000000000002 C 105.97200000000001 24.094 106.37400000000001 25.320000000000004 106.37400000000001 26.929000000000002 L 106.37400000000001 30.135 C 106.37400000000001 31.745 105.97200000000001 32.971000000000004 105.168 33.815000000000005 C 104.364 34.659000000000006 103.31500000000001 35.081 102.02300000000001 35.081 z M 124.013 39.039 C 126.334 39.039 128.233 38.063 129.709 36.111000000000004 L 130.302 38.644000000000005 L 134.851 38.644000000000005 L 134.851 10.152 L 129.076 10.152 L 129.076 20.756999999999998 C 128.49599999999998 19.991999999999997 127.725 19.346999999999998 126.76299999999999 18.817999999999998 C 125.8 18.290999999999997 124.68599999999999 18.026999999999997 123.42099999999999 18.026999999999997 C 121.94399999999999 18.026999999999997 120.61899999999999 18.409999999999997 119.446 19.174999999999997 C 118.27199999999999 19.939999999999998 117.343 21.086999999999996 116.657 22.616999999999997 C 115.972 24.147 115.62899999999999 26.006999999999998 115.62899999999999 28.196999999999996 L 115.62899999999999 28.631999999999994 C 115.62899999999999 30.926999999999992 115.999 32.852999999999994 116.73599999999999 34.41 C 117.475 35.965999999999994 118.47599999999998 37.126999999999995 119.74199999999999 37.891999999999996 C 121.008 38.657 122.43199999999999 39.038999999999994 124.014 39.038999999999994 z M 125.27900000000001 35.082 C 124.17200000000001 35.082 123.26200000000001 34.667 122.55000000000001 33.836 C 121.83800000000001 33.004999999999995 121.48300000000002 31.823999999999998 121.48300000000002 30.293999999999997 L 121.48300000000002 27.01 C 121.48300000000002 25.453000000000003 121.83800000000002 24.266000000000002 122.55000000000001 23.448 C 123.26200000000001 22.63 124.17200000000001 22.222 125.28000000000002 22.222 C 126.38700000000001 22.222 127.29700000000001 22.630000000000003 128.008 23.448 C 128.72 24.266000000000002 129.07600000000002 25.453 129.07600000000002 27.01 L 129.07600000000002 30.294 C 129.07600000000002 31.824 128.72000000000003 33.004 128.008 33.836 C 127.29700000000001 34.666 126.38700000000001 35.082 125.27900000000001 35.082 z" stroke-linecap="round" />
</g>
</g>
</g>
<g transform="matrix(NaN NaN NaN NaN 0 0)"  >
<g style=""   >
</g>
</g>
<g transform="matrix(NaN NaN NaN NaN 0 0)"  >
<g style=""   >
</g>
</g>
</svg>